HIERARCHY
ROOT Hips
{
  OFFSET 5.80788e-005 67.184 3.4734
  CHANNELS 6 Xposition Yposition Zposition Zrotation Xrotation Yrotation
  JOINT Chest
  {
    OFFSET 0 8.7983 -4.7612
    CHANNELS 6 Xposition Yposition Zposition Zrotation Xrotation Yrotation
    JOINT Chest2
    {
      OFFSET 0 8.0291 0.4195
      CHANNELS 6 Xposition Yposition Zposition Zrotation Xrotation Yrotation
      JOINT Chest3
      {
        OFFSET 0 9.9351 -2.2114
        CHANNELS 6 Xposition Yposition Zposition Zrotation Xrotation Yrotation
        JOINT Neck
        {
          OFFSET 0 22.3885 -0.4656
          CHANNELS 6 Xposition Yposition Zposition Zrotation Xrotation Yrotation
          JOINT Head
          {
            OFFSET -0.0001 12.643 3.4389
            CHANNELS 6 Xposition Yposition Zposition Zrotation Xrotation Yrotation
            End Site
            {
              OFFSET 0.0001 17.6655 0.5274
            }
          }
        }
        JOINT LeftCollar
        {
          OFFSET 2.2603 21.606 7.4023
          CHANNELS 6 Xposition Yposition Zposition Zrotation Xrotation Yrotation
          JOINT LeftShoulder
          {
            OFFSET 13.5163 -1.1332 -5.0146
            CHANNELS 6 Xposition Yposition Zposition Zrotation Xrotation Yrotation
            JOINT LeftElbow
            {
              OFFSET -0.0995 -28.05 -0.2431
              CHANNELS 6 Xposition Yposition Zposition Zrotation Xrotation Yrotation
              JOINT LeftWrist
              {
                OFFSET 0.0679 -23.3996 -0.1402
                CHANNELS 6 Xposition Yposition Zposition Zrotation Xrotation Yrotation
                JOINT LeftFinger1
                {
                  OFFSET 0.7932 -9.069 2.5189
                  CHANNELS 6 Xposition Yposition Zposition Zrotation Xrotation Yrotation
                  JOINT LeftFinger11
                  {
                    OFFSET -0.8272 -3.3923 0.5977
                    CHANNELS 6 Xposition Yposition Zposition Zrotation Xrotation Yrotation
                    JOINT LeftFinger12
                    {
                      OFFSET -0.5649 -2.3158 0.4082
                      CHANNELS 6 Xposition Yposition Zposition Zrotation Xrotation Yrotation
                      End Site
                      {
                        OFFSET -0.4919 -1.6479 0.2673
                      }
                    }
                  }
                }
                JOINT LeftFinger2
                {
                  OFFSET 0.9159 -9.2044 0.2193
                  CHANNELS 6 Xposition Yposition Zposition Zrotation Xrotation Yrotation
                  JOINT LeftFinger21
                  {
                    OFFSET 0.0117 -4.1944 -0.0248
                    CHANNELS 6 Xposition Yposition Zposition Zrotation Xrotation Yrotation
                    JOINT LeftFinger22
                    {
                      OFFSET 0.0071 -2.3249 -0.0142
                      CHANNELS 6 Xposition Yposition Zposition Zrotation Xrotation Yrotation
                      End Site
                      {
                        OFFSET -0.1475 -2.0882 0.0028
                      }
                    }
                  }
                }
                JOINT LeftFinger3
                {
                  OFFSET 0.6113 -8.7231 -2.0637
                  CHANNELS 6 Xposition Yposition Zposition Zrotation Xrotation Yrotation
                  JOINT LeftFinger31
                  {
                    OFFSET -0.1927 -3.8059 -0.2383
                    CHANNELS 6 Xposition Yposition Zposition Zrotation Xrotation Yrotation
                    JOINT LeftFinger32
                    {
                      OFFSET -0.1091 -2.1688 -0.1362
                      CHANNELS 6 Xposition Yposition Zposition Zrotation Xrotation Yrotation
                      End Site
                      {
                        OFFSET -0.2358 -1.9176 -0.0906
                      }
                    }
                  }
                }
                JOINT LeftFinger4
                {
                  OFFSET -0.6151 -8.0947 -3.5641
                  CHANNELS 6 Xposition Yposition Zposition Zrotation Xrotation Yrotation
                  JOINT LeftFinger41
                  {
                    OFFSET -0.4882 -2.341 -0.6462
                    CHANNELS 6 Xposition Yposition Zposition Zrotation Xrotation Yrotation
                    JOINT LeftFinger42
                    {
                      OFFSET -0.3575 -1.7167 -0.4742
                      CHANNELS 6 Xposition Yposition Zposition Zrotation Xrotation Yrotation
                      End Site
                      {
                        OFFSET -0.4187 -1.5237 -0.3496
                      }
                    }
                  }
                }
                JOINT LeftFinger0
                {
                  OFFSET -1.42 -1.8761 1.4223
                  CHANNELS 6 Xposition Yposition Zposition Zrotation Xrotation Yrotation
                  JOINT LeftFinger01
                  {
                    OFFSET -1.1471 -3.4929 2.6334
                    CHANNELS 6 Xposition Yposition Zposition Zrotation Xrotation Yrotation
                    JOINT LeftFinger02
                    {
                      OFFSET -0.823 -2.3 1.6571
                      CHANNELS 6 Xposition Yposition Zposition Zrotation Xrotation Yrotation
                      End Site
                      {
                        OFFSET -0.5822 -1.6914 1.1582
                      }
                    }
                  }
                }
              }
            }
          }
        }
        JOINT RightCollar
        {
          OFFSET -2.2603 21.606 7.4023
          CHANNELS 6 Xposition Yposition Zposition Zrotation Xrotation Yrotation
          JOINT RightShoulder
          {
            OFFSET -13.5187 -1.1334 -5.0155
            CHANNELS 6 Xposition Yposition Zposition Zrotation Xrotation Yrotation
            JOINT RightElbow
            {
              OFFSET 0.0994 -28.0499 -0.2431
              CHANNELS 6 Xposition Yposition Zposition Zrotation Xrotation Yrotation
              JOINT RightWrist
              {
                OFFSET -0.0679 -23.3996 -0.1402
                CHANNELS 6 Xposition Yposition Zposition Zrotation Xrotation Yrotation
                JOINT RightFinger1
                {
                  OFFSET -0.7932 -9.0691 2.5189
                  CHANNELS 6 Xposition Yposition Zposition Zrotation Xrotation Yrotation
                  JOINT RightFinger11
                  {
                    OFFSET 0.8272 -3.3923 0.5977
                    CHANNELS 6 Xposition Yposition Zposition Zrotation Xrotation Yrotation
                    JOINT RightFinger12
                    {
                      OFFSET 0.565 -2.3158 0.4082
                      CHANNELS 6 Xposition Yposition Zposition Zrotation Xrotation Yrotation
                      End Site
                      {
                        OFFSET 0.4919 -1.6479 0.2673
                      }
                    }
                  }
                }
                JOINT RightFinger2
                {
                  OFFSET -0.916 -9.2044 0.2193
                  CHANNELS 6 Xposition Yposition Zposition Zrotation Xrotation Yrotation
                  JOINT RightFinger21
                  {
                    OFFSET -0.0117 -4.1944 -0.0248
                    CHANNELS 6 Xposition Yposition Zposition Zrotation Xrotation Yrotation
                    JOINT RightFinger22
                    {
                      OFFSET -0.0071 -2.3249 -0.0142
                      CHANNELS 6 Xposition Yposition Zposition Zrotation Xrotation Yrotation
                      End Site
                      {
                        OFFSET 0.1475 -2.0882 0.0028
                      }
                    }
                  }
                }
                JOINT RightFinger3
                {
                  OFFSET -0.6113 -8.7231 -2.0637
                  CHANNELS 6 Xposition Yposition Zposition Zrotation Xrotation Yrotation
                  JOINT RightFinger31
                  {
                    OFFSET 0.1927 -3.8059 -0.2383
                    CHANNELS 6 Xposition Yposition Zposition Zrotation Xrotation Yrotation
                    JOINT RightFinger32
                    {
                      OFFSET 0.1091 -2.1688 -0.1362
                      CHANNELS 6 Xposition Yposition Zposition Zrotation Xrotation Yrotation
                      End Site
                      {
                        OFFSET 0.2358 -1.9176 -0.0906
                      }
                    }
                  }
                }
                JOINT RightFinger4
                {
                  OFFSET 0.6151 -8.0947 -3.564
                  CHANNELS 6 Xposition Yposition Zposition Zrotation Xrotation Yrotation
                  JOINT RightFinger41
                  {
                    OFFSET 0.4882 -2.341 -0.6462
                    CHANNELS 6 Xposition Yposition Zposition Zrotation Xrotation Yrotation
                    JOINT RightFinger42
                    {
                      OFFSET 0.3574 -1.7166 -0.4742
                      CHANNELS 6 Xposition Yposition Zposition Zrotation Xrotation Yrotation
                      End Site
                      {
                        OFFSET 0.4187 -1.5237 -0.3496
                      }
                    }
                  }
                }
                JOINT RightFinger0
                {
                  OFFSET 1.4199 -1.8761 1.4221
                  CHANNELS 6 Xposition Yposition Zposition Zrotation Xrotation Yrotation
                  JOINT RightFinger01
                  {
                    OFFSET 1.1472 -3.4929 2.6336
                    CHANNELS 6 Xposition Yposition Zposition Zrotation Xrotation Yrotation
                    JOINT RightFinger02
                    {
                      OFFSET 0.8229 -2.3 1.6571
                      CHANNELS 6 Xposition Yposition Zposition Zrotation Xrotation Yrotation
                      End Site
                      {
                        OFFSET 0.5822 -1.6914 1.1582
                      }
                    }
                  }
                }
              }
            }
          }
        }
      }
    }
  }
  JOINT RightHip
  {
    OFFSET -9.412 3.9771 -0.7758
    CHANNELS 6 Xposition Yposition Zposition Zrotation Xrotation Yrotation
    JOINT RightKnee
    {
      OFFSET -0.7531 -40.938 0
      CHANNELS 6 Xposition Yposition Zposition Zrotation Xrotation Yrotation
      JOINT RightAnkle
      {
        OFFSET 0 -40.1986 0
        CHANNELS 6 Xposition Yposition Zposition Zrotation Xrotation Yrotation
        JOINT RightToe
        {
          OFFSET 0 -4.4182 9.239
          CHANNELS 6 Xposition Yposition Zposition Zrotation Xrotation Yrotation
          End Site
          {
            OFFSET 0 0 6.1981
          }
        }
      }
    }
  }
  JOINT LeftHip
  {
    OFFSET 9.4119 3.9773 -0.7758
    CHANNELS 6 Xposition Yposition Zposition Zrotation Xrotation Yrotation
    JOINT LeftKnee
    {
      OFFSET 0.7532 -40.9383 0
      CHANNELS 6 Xposition Yposition Zposition Zrotation Xrotation Yrotation
      JOINT LeftAnkle
      {
        OFFSET 0 -40.1986 0
        CHANNELS 6 Xposition Yposition Zposition Zrotation Xrotation Yrotation
        JOINT LeftToe
        {
          OFFSET 0 -4.4182 9.239
          CHANNELS 6 Xposition Yposition Zposition Zrotation Xrotation Yrotation
          End Site
          {
            OFFSET 0 0 6.1981
          }
        }
      }
    }
  }
}
MOTION
Frames:	4
Frame Time:	0.0333333
5.80788e-005 67.184 3.4734 0 0 -0 0 8.7983 -4.7612 0 0 -0 0 8.0291 0.4195 0 0 -0 0 9.9351 -2.2114 0 0 -0 0 22.3885 -0.4656 0 0 -0 -0.0001 12.643 3.4389 0 0 -0 2.2603 21.606 7.4023 0 0 -12.5014 13.5163 -1.1332 -5.0146 88.1196 14.2451 10.6914 -0.0995 -28.05 -0.2431 -0.00160068 -0.00239207 0.000740045 0.0679 -23.3996 -0.1402 -8.4365e-005 7.00714e-005 -9.52055e-007 0.7932 -9.069 2.5189 9.93923e-017 -1.98785e-016 -1.59028e-015 -0.8272 -3.3923 0.5977 9.93923e-017 -5.96354e-016 -1.59028e-015 -0.5649 -2.3158 0.4082 -9.93923e-017 -5.96354e-016 -1.59028e-015 0.9159 -9.2044 0.2193 9.93923e-017 -1.98785e-016 -1.59028e-015 0.0117 -4.1944 -0.0248 -0.0128176 0.00232552 8.52707e-005 0.0071 -2.3249 -0.0142 9.93923e-017 5.96354e-016 -0 0.6113 -8.7231 -2.0637 9.93923e-017 -1.98785e-016 -1.59028e-015 -0.1927 -3.8059 -0.2383 -0.0160551 0.00299681 0.000857156 -0.1091 -2.1688 -0.1362 -2.48481e-016 0 3.18055e-015 -0.6151 -8.0947 -3.5641 9.93923e-017 -1.98785e-016 -1.59028e-015 -0.4882 -2.341 -0.6462 -0.0125865 0.0031206 0.00282719 -0.3575 -1.7167 -0.4742 0 1.98785e-016 -0 -1.42 -1.8761 1.4223 9.93923e-017 -1.98785e-016 -1.59028e-015 -1.1471 -3.4929 2.6334 9.93923e-017 -5.96354e-016 -1.59028e-015 -0.823 -2.3 1.6571 -9.93923e-017 -5.96354e-016 -1.59028e-015 -2.2603 21.606 7.4023 -0.865644 0.16582 7.03859 -13.5187 -1.1334 -5.0155 -88.0329 10.2057 -10.5567 0.0994 -28.0499 -0.2431 0.0015593 -0.00248883 -0.000788628 -0.0679 -23.3996 -0.1402 7.87605e-005 4.10553e-005 1.24965e-005 -0.7932 -9.0691 2.5189 -3.97569e-016 -7.95139e-016 3.18055e-015 0.8272 -3.3923 0.5977 -1.98785e-016 -3.97569e-016 3.18055e-015 0.565 -2.3158 0.4082 -1.98785e-016 0 3.18055e-015 -0.916 -9.2044 0.2193 -3.97569e-016 -7.95139e-016 3.18055e-015 -0.0117 -4.1944 -0.0248 0.0129473 0.00231697 -8.70038e-005 -0.0071 -2.3249 -0.0142 9.93923e-017 -7.95139e-016 1.59028e-015 -0.6113 -8.7231 -2.0637 -3.97569e-016 -7.95139e-016 3.18055e-015 0.1927 -3.8059 -0.2383 0.0163314 0.00303369 -0.000872333 0.1091 -2.1688 -0.1362 3.97569e-016 7.95139e-016 -3.18055e-015 0.6151 -8.0947 -3.564 -3.97569e-016 -7.95139e-016 3.18055e-015 0.4882 -2.341 -0.6462 0.0145763 0.00367772 -0.00326275 0.3574 -1.7166 -0.4742 9.93923e-017 -3.97569e-016 -0 1.4199 -1.8761 1.4221 -3.97569e-016 -7.95139e-016 3.18055e-015 1.1472 -3.4929 2.6336 -1.98785e-016 -3.97569e-016 3.18055e-015 0.8229 -2.3 1.6571 -1.98785e-016 0 3.18055e-015 -9.412 3.9771 -0.7758 3.42485 1.36937 -0.0640303 -0.7531 -40.938 0 0.000136572 0.69354 0.00145564 1.77636e-015 -40.1986 -1.11022e-016 -3.42573 -2.06297 -0.0607933 8.88178e-016 -4.4182 9.239 -3.19502e-024 0 -1.48106e-024 9.4119 3.9773 -0.7758 -3.42498 1.36123 0.0639712 0.7532 -40.9383 2.22045e-016 -6.769e-005 0.712612 -0.0012277 8.88179e-016 -40.1986 0 3.42582 -2.07388 0.0612819 -8.88178e-016 -4.4182 9.239 2.55305e-023 0 -2.31416e-026 
39.8412 41.565 18.7057 179.997 58.9865 -2.69027e-008 0 8.7983 -4.7612 -0.0261178 8.04516 -0.0848084 -7.10543e-015 8.0291 0.4195 -0.0406799 16.0904 -0.168402 0 9.9351 -2.2114 -0.0406799 16.0904 -0.168402 -7.10543e-015 22.3885 -0.4656 1.96812e-008 13.9969 9.32351e-007 -0.0001 12.643 3.4389 4.87999e-008 0.120643 -1.24375e-007 2.2603 21.606 7.4023 -17.4702 -1.22939 -14.4153 13.5163 -1.1332 -5.0146 45.8257 13.4922 -36.1459 -0.0995 -28.05 -0.2431 0.455687 -14.9623 -35.8695 0.0679 -23.3996 -0.1402 1.36243 -1.77871 5.30918 0.7932 -9.069 2.5189 1.59028e-015 3.18055e-015 -3.97569e-016 -0.8272 -3.3923 0.5977 7.95139e-016 0 -2.18663e-015 -0.5649 -2.3158 0.4082 2.38542e-015 0 1.98785e-016 0.9159 -9.2044 0.2193 1.59028e-015 3.18055e-015 -3.97569e-016 0.0117 -4.1944 -0.0248 -0.0128044 0.00232016 7.47044e-005 0.0071 -2.3249 -0.0142 -7.95139e-016 3.18055e-015 -1.59028e-015 0.6113 -8.7231 -2.0637 1.59028e-015 3.18055e-015 -3.97569e-016 -0.1927 -3.8059 -0.2383 -0.0160499 0.00299544 0.000849766 -0.1091 -2.1688 -0.1362 7.95139e-016 0 -1.98785e-016 -0.6151 -8.0947 -3.5641 1.59028e-015 3.18055e-015 -3.97569e-016 -0.4882 -2.341 -0.6462 -0.0125966 0.00311308 0.00281595 -0.3575 -1.7167 -0.4742 -7.95139e-016 -3.18055e-015 -2.5842e-015 -1.42 -1.8761 1.4223 1.59028e-015 3.18055e-015 -3.97569e-016 -1.1471 -3.4929 2.6334 7.95139e-016 0 -2.18663e-015 -0.823 -2.3 1.6571 2.38542e-015 0 1.98785e-016 -2.2603 21.606 7.4023 10.1354 -1.75847 8.25607 -13.5187 -1.1334 -5.0155 -38.6269 8.76753 39.3256 0.0994 -28.0499 -0.2431 1.56739 -19.3104 36.243 -0.0679 -23.3996 -0.1402 -1.55446 4.50805 -3.33362 -0.7932 -9.0691 2.5189 -7.95139e-016 0 3.18055e-015 0.8272 -3.3923 0.5977 1.16497e-006 -8.57285e-006 8.03755e-006 0.565 -2.3158 0.4082 -1.59028e-015 3.18055e-015 -1.39149e-015 -0.916 -9.2044 0.2193 -7.95139e-016 0 3.18055e-015 -0.0117 -4.1944 -0.0248 0.0129721 0.00231888 -8.06222e-005 -0.0071 -2.3249 -0.0142 2.38542e-015 9.54166e-015 -1.39149e-015 -0.6113 -8.7231 -2.0637 -7.95139e-016 0 3.18055e-015 0.1927 -3.8059 -0.2383 0.0163379 0.0030401 -0.000869996 0.1091 -2.1688 -0.1362 1.98626e-031 -3.18055e-015 3.57812e-015 0.6151 -8.0947 -3.564 -7.95139e-016 0 3.18055e-015 0.4882 -2.341 -0.6462 0.0145945 0.00368829 -0.00325584 0.3574 -1.7166 -0.4742 -7.95139e-016 -6.36111e-015 -1.19271e-015 1.4199 -1.8761 1.4221 -7.95139e-016 0 3.18055e-015 1.1472 -3.4929 2.6336 1.16497e-006 -8.57285e-006 8.03755e-006 0.8229 -2.3 1.6571 -1.59028e-015 3.18055e-015 -1.39149e-015 -9.412 3.9771 -0.7758 -54.9937 -71.3358 -84.7461 -0.7531 -40.938 -3.55271e-015 -1.56954 34.92 42.1586 0 -40.1986 0 -21.1262 -2.47042 -5.78699 3.55271e-015 -4.4182 9.239 -3.34638e-006 9.73714e-007 9.42754e-007 9.4119 3.9773 -0.7758 54.9461 -71.3618 84.6922 0.7532 -40.9383 3.55271e-015 1.57376 34.9099 -42.174 0 -40.1986 7.10543e-015 21.1087 -2.45629 5.77687 7.10543e-015 -4.4182 9.239 9.93923e-016 7.95139e-016 7.95139e-016 
39.8404 41.5643 18.7053 179.997 58.9947 -4.37018e-008 0 8.7983 -4.7612 -0.0265175 8.16664 -0.0846559 -1.42109e-014 8.0291 0.4195 -0.0413387 16.3333 -0.168053 0 9.9351 -2.2114 -0.0413388 16.3334 -0.168053 7.10543e-015 22.3885 -0.4656 3.82896e-008 13.8803 7.35607e-007 -0.0001 12.643 3.4389 7.97053e-008 0.12033 5.87288e-009 2.2603 21.606 7.4023 -16.8391 -1.56309 -14.6803 13.5163 -1.1332 -5.0146 45.3689 13.3495 -36.069 -0.0995 -28.05 -0.2431 0.40066 -14.9346 -35.8694 0.0679 -23.3996 -0.1402 1.50914 -1.63362 5.59879 0.7932 -9.069 2.5189 7.95139e-016 3.18055e-015 2.5842e-015 -0.8272 -3.3923 0.5977 7.95139e-016 0 4.57205e-015 -0.5649 -2.3158 0.4082 7.95139e-016 -6.36111e-015 -1.98785e-016 0.9159 -9.2044 0.2193 7.95139e-016 3.18055e-015 2.5842e-015 0.0117 -4.1944 -0.0248 -0.0128522 0.00232202 8.49668e-005 0.0071 -2.3249 -0.0142 7.95139e-016 -3.18055e-015 -2.78299e-015 0.6113 -8.7231 -2.0637 7.95139e-016 3.18055e-015 2.5842e-015 -0.1927 -3.8059 -0.2383 -0.0160267 0.00300042 0.000856656 -0.1091 -2.1688 -0.1362 7.95139e-016 0 -3.97569e-016 -0.6151 -8.0947 -3.5641 7.95139e-016 3.18055e-015 2.5842e-015 -0.4882 -2.341 -0.6462 -0.0125531 0.00311433 0.00282055 -0.3575 -1.7167 -0.4742 7.95139e-016 0 1.98785e-016 -1.42 -1.8761 1.4223 7.95139e-016 3.18055e-015 2.5842e-015 -1.1471 -3.4929 2.6334 7.95139e-016 0 4.57205e-015 -0.823 -2.3 1.6571 7.95139e-016 -6.36111e-015 -1.98785e-016 -2.2603 21.606 7.4023 9.57444 -2.16438 8.49842 -13.5187 -1.1334 -5.0155 -38.2088 8.72126 39.2921 0.0994 -28.0499 -0.2431 1.56714 -19.3104 36.243 -0.0679 -23.3996 -0.1402 -1.64664 4.65086 -3.61523 -0.7932 -9.0691 2.5189 7.95139e-016 -6.36111e-015 1.19271e-015 0.8272 -3.3923 0.5977 -1.59028e-015 -3.18055e-015 -0 0.565 -2.3158 0.4082 -2.97939e-031 -9.54166e-015 -1.78906e-015 -0.916 -9.2044 0.2193 7.95139e-016 -6.36111e-015 1.19271e-015 -0.0117 -4.1944 -0.0248 0.0129395 0.00231624 -9.13129e-005 -0.0071 -2.3249 -0.0142 6.17947e-031 -6.36111e-015 5.56597e-015 -0.6113 -8.7231 -2.0637 7.95139e-016 -6.36111e-015 1.19271e-015 0.1927 -3.8059 -0.2383 0.0163445 0.00303929 -0.00087706 0.1091 -2.1688 -0.1362 2.86904e-031 -6.36111e-015 2.5842e-015 0.6151 -8.0947 -3.564 7.95139e-016 -6.36111e-015 1.19271e-015 0.4882 -2.341 -0.6462 0.0145893 0.00367411 -0.00326844 0.3574 -1.7166 -0.4742 7.95139e-016 -3.18055e-015 -1.59028e-015 1.4199 -1.8761 1.4221 7.95139e-016 -6.36111e-015 1.19271e-015 1.1472 -3.4929 2.6336 -1.59028e-015 -3.18055e-015 -0 0.8229 -2.3 1.6571 -2.97939e-031 -9.54166e-015 -1.78906e-015 -9.412 3.9771 -0.7758 -54.6402 -71.5804 -84.4194 -0.7531 -40.938 3.55271e-015 -1.57008 34.9369 42.1577 0 -40.1986 -7.10543e-015 -21.4199 -2.45379 -5.92746 -3.55271e-015 -4.4182 9.23901 4.24475e-006 -8.86746e-007 6.08267e-007 9.4119 3.9773 -0.7758 54.7483 -71.5148 84.5102 0.7532 -40.9383 -1.06581e-014 1.57411 34.9209 -42.1735 1.77636e-015 -40.1986 7.10543e-015 21.2955 -2.45339 5.86788 7.10543e-015 -4.4182 9.239 -3.36092e-008 -7.06579e-010 4.24543e-007 
39.8396 41.5643 18.706 179.997 58.9947 3.01462e-008 -7.10543e-015 8.7983 -4.7612 -0.0269184 8.28835 -0.0845006 -7.10543e-015 8.0291 0.4195 -0.0420013 16.5768 -0.167696 -7.10543e-015 9.9351 -2.2114 -0.0420013 16.5769 -0.167697 7.10543e-015 22.3885 -0.4656 2.0088e-007 13.7636 9.17398e-007 -0.0001 12.643 3.4389 9.60827e-008 0.120022 1.39443e-008 2.2603 21.606 7.4023 -16.2089 -1.89999 -14.9419 13.5163 -1.1332 -5.0146 44.8759 13.2747 -35.9841 -0.0995 -28.05 -0.2431 0.414768 -14.9413 -35.8695 0.0679 -23.3996 -0.1402 1.6551 -1.48773 5.88811 0.7932 -9.069 2.5189 7.95139e-016 6.36111e-015 -1.98785e-016 -0.8272 -3.3923 0.5977 7.95139e-016 9.54166e-015 -1.59028e-015 -0.5649 -2.3158 0.4082 2.38542e-015 1.27222e-014 5.96354e-016 0.9159 -9.2044 0.2193 7.95139e-016 6.36111e-015 -1.98785e-016 0.0117 -4.1944 -0.0248 -0.012862 0.00232069 8.41715e-005 0.0071 -2.3249 -0.0142 -1.59028e-015 3.18055e-015 9.93923e-016 0.6113 -8.7231 -2.0637 7.95139e-016 6.36111e-015 -1.98785e-016 -0.1927 -3.8059 -0.2383 -0.0160563 0.00299238 0.000855935 -0.1091 -2.1688 -0.1362 7.95139e-016 -6.36111e-015 1.39149e-015 -0.6151 -8.0947 -3.5641 7.95139e-016 6.36111e-015 -1.98785e-016 -0.4882 -2.341 -0.6462 -0.0125981 0.00310985 0.00282579 -0.3575 -1.7167 -0.4742 -7.95139e-016 0 -2.5842e-015 -1.42 -1.8761 1.4223 7.95139e-016 6.36111e-015 -1.98785e-016 -1.1471 -3.4929 2.6334 7.95139e-016 9.54166e-015 -1.59028e-015 -0.823 -2.3 1.6571 2.38542e-015 1.27222e-014 5.96354e-016 -2.2603 21.606 7.4023 9.01463 -2.57295 8.73701 -13.5187 -1.1334 -5.0155 -37.7908 8.67448 39.2591 0.0994 -28.0499 -0.2431 1.56719 -19.3104 36.243 -0.0679 -23.3996 -0.1402 -1.73816 4.79414 -3.89673 -0.7932 -9.0691 2.5189 -7.95139e-016 0 -3.37934e-015 0.8272 -3.3923 0.5977 -7.95139e-016 0 -1.98785e-015 0.565 -2.3158 0.4082 -7.95139e-016 0 -1.19271e-015 -0.916 -9.2044 0.2193 -7.95139e-016 0 -3.37934e-015 -0.0117 -4.1944 -0.0248 0.0129157 0.00231103 -8.9337e-005 -0.0071 -2.3249 -0.0142 1.59028e-015 -3.18055e-015 -3.97569e-016 -0.6113 -8.7231 -2.0637 -7.95139e-016 0 -3.37934e-015 0.1927 -3.8059 -0.2383 0.0163462 0.00304584 -0.000878689 0.1091 -2.1688 -0.1362 6.15578e-007 -3.57062e-006 4.32338e-006 0.6151 -8.0947 -3.564 -7.95139e-016 0 -3.37934e-015 0.4882 -2.341 -0.6462 0.0146116 0.00369278 -0.00327477 0.3574 -1.7166 -0.4742 1.13296e-006 3.27768e-006 -3.17975e-006 1.4199 -1.8761 1.4221 -7.95139e-016 0 -3.37934e-015 1.1472 -3.4929 2.6336 -7.95139e-016 0 -1.98785e-015 0.8229 -2.3 1.6571 -7.95139e-016 0 -1.19271e-015 -9.412 3.9771 -0.7758 -54.2781 -71.8243 -84.0841 -0.7531 -40.938 -3.55271e-015 -1.57062 34.9541 42.1568 1.42109e-014 -40.1986 0 -21.7136 -2.43655 -6.0679 0 -4.4182 9.239 8.19987e-015 -7.95139e-016 -0 9.4119 3.9773 -0.7758 54.546 -71.6677 84.3237 0.7532 -40.9383 3.55271e-015 1.57453 34.9314 -42.173 0 -40.1986 -7.10543e-015 21.4823 -2.45019 5.95891 0 -4.4182 9.23901 -2.65592e-006 -3.96354e-007 -1.76307e-008 
